{
	"asset":{
		"generator":"Khronos glTF Blender I/O v4.4.55",
		"version":"2.0"
	},
	"scene":0,
	"scenes":[
		{
			"name":"Scene",
			"nodes":[
				1
			]
		}
	],
	"nodes":[
		{
			"mesh":0,
			"name":"deuren",
			"translation":[
				0.6110864877700806,
				0.4846700131893158,
				-3.1010217666625977
			]
		},
		{
			"children":[
				0
			],
			"mesh":1,
			"name":"Plane.001 -col",
			"scale":[
				8.624539375305176,
				8.624539375305176,
				8.624539375305176
			],
			"translation":[
				-6.672119140625,
				0,
				-0.3460440933704376
			]
		}
	],
	"materials":[
		{
			"doubleSided":true,
			"name":"debug",
			"pbrMetallicRoughness":{
				"baseColorFactor":[
					0.800000011920929,
					0.800000011920929,
					0.800000011920929,
					1
				],
				"metallicFactor":0,
				"roughnessFactor":0.5
			}
		}
	],
	"meshes":[
		{
			"name":"Plane.003",
			"primitives":[
				{
					"attributes":{
						"POSITION":0,
						"NORMAL":1,
						"TEXCOORD_0":2
					},
					"indices":3,
					"material":0
				}
			]
		},
		{
			"name":"Plane.002",
			"primitives":[
				{
					"attributes":{
						"POSITION":4,
						"NORMAL":5,
						"TEXCOORD_0":6
					},
					"indices":7,
					"material":0
				}
			]
		}
	],
	"accessors":[
		{
			"bufferView":0,
			"componentType":5126,
			"count":18,
			"max":[
				0.6947727203369141,
				0.3667539358139038,
				4.76837158203125e-07
			],
			"min":[
				-0.6947708129882812,
				-0.5010088682174683,
				4.76837158203125e-07
			],
			"type":"VEC3"
		},
		{
			"bufferView":1,
			"componentType":5126,
			"count":18,
			"type":"VEC3"
		},
		{
			"bufferView":2,
			"componentType":5126,
			"count":18,
			"type":"VEC2"
		},
		{
			"bufferView":3,
			"componentType":5123,
			"count":48,
			"type":"SCALAR"
		},
		{
			"bufferView":4,
			"componentType":5126,
			"count":174,
			"max":[
				8.910977363586426,
				0.8514239192008972,
				7.379429340362549
			],
			"min":[
				-9.303531646728516,
				-0.016338879242539406,
				-5.788177013397217
			],
			"type":"VEC3"
		},
		{
			"bufferView":5,
			"componentType":5126,
			"count":174,
			"type":"VEC3"
		},
		{
			"bufferView":6,
			"componentType":5126,
			"count":174,
			"type":"VEC2"
		},
		{
			"bufferView":7,
			"componentType":5123,
			"count":594,
			"type":"SCALAR"
		}
	],
	"bufferViews":[
		{
			"buffer":0,
			"byteLength":216,
			"byteOffset":0,
			"target":34962
		},
		{
			"buffer":0,
			"byteLength":216,
			"byteOffset":216,
			"target":34962
		},
		{
			"buffer":0,
			"byteLength":144,
			"byteOffset":432,
			"target":34962
		},
		{
			"buffer":0,
			"byteLength":96,
			"byteOffset":576,
			"target":34963
		},
		{
			"buffer":0,
			"byteLength":2088,
			"byteOffset":672,
			"target":34962
		},
		{
			"buffer":0,
			"byteLength":2088,
			"byteOffset":2760,
			"target":34962
		},
		{
			"buffer":0,
			"byteLength":1392,
			"byteOffset":4848,
			"target":34962
		},
		{
			"buffer":0,
			"byteLength":1188,
			"byteOffset":6240,
			"target":34963
		}
	],
	"buffers":[
		{
			"byteLength":7428,
			"uri":"jvo.bin"
		}
	]
}
