{
	"asset":{
		"generator":"Khronos glTF Blender I/O v4.4.55",
		"version":"2.0"
	},
	"scene":0,
	"scenes":[
		{
			"name":"Scene",
			"nodes":[
				0,
				1,
				2,
				3,
				4,
				5,
				6,
				7,
				8,
				9,
				10,
				11,
				12
			]
		}
	],
	"nodes":[
		{
			"mesh":0,
			"name":"basis -col",
			"scale":[
				8.726532936096191,
				8.726532936096191,
				8.726532936096191
			],
			"translation":[
				-1.4017791748046875,
				4.180055618286133,
				-27.09092903137207
			]
		},
		{
			"mesh":1,
			"name":"muurtjes_aula -col",
			"scale":[
				8.624539375305176,
				8.624539375305176,
				8.624539375305176
			],
			"translation":[
				-1.2223386764526367,
				4.1217780113220215,
				-26.910194396972656
			]
		},
		{
			"mesh":2,
			"name":"stairs_aula",
			"translation":[
				15.60958480834961,
				0,
				0
			]
		},
		{
			"mesh":3,
			"name":"borders -col",
			"rotation":[
				0.7071068286895752,
				0,
				0,
				0.7071068286895752
			],
			"translation":[
				14.53190803527832,
				0.9512062072753906,
				-15.562602043151855
			]
		},
		{
			"mesh":4,
			"name":"stairs.001",
			"translation":[
				15.704249382019043,
				0.18497790396213531,
				-3.500333786010742
			]
		},
		{
			"mesh":4,
			"name":"stairs",
			"translation":[
				-22.514389038085938,
				0.18497790396213531,
				-3.500333786010742
			]
		},
		{
			"mesh":5,
			"name":"Cube",
			"translation":[
				13,
				0.7794132232666016,
				-16
			]
		},
		{
			"mesh":6,
			"name":"stair_collision -col",
			"scale":[
				7.608378887176514,
				8.726532936096191,
				8.726532936096191
			],
			"translation":[
				-23.110698699951172,
				1.982024908065796,
				-1.9843578338623047
			]
		},
		{
			"mesh":6,
			"name":"stair_collision -col.001",
			"scale":[
				6.912130355834961,
				8.726532936096191,
				8.726532936096191
			],
			"translation":[
				14.78129768371582,
				1.982024908065796,
				-1.9843578338623047
			]
		},
		{
			"mesh":7,
			"name":"Plane.001",
			"scale":[
				0.5452445149421692,
				1,
				1.795498013496399
			],
			"translation":[
				38.44050216674805,
				0.2114274799823761,
				-20.52841567993164
			]
		},
		{
			"mesh":8,
			"name":"stair_collision -col.002",
			"rotation":[
				0,
				-0.7071068286895752,
				0,
				0.7071068286895752
			],
			"scale":[
				6.912130355834961,
				8.726532936096191,
				8.726532936096191
			],
			"translation":[
				35.5519905090332,
				2.1878976821899414,
				-22.321165084838867
			]
		},
		{
			"mesh":9,
			"name":"Plane.002",
			"rotation":[
				0,
				-1,
				0,
				1.6292068494294654e-07
			],
			"scale":[
				0.5452445149421692,
				1,
				1.795498013496399
			],
			"translation":[
				33.64994430541992,
				4.38108491897583,
				-17.473651885986328
			]
		},
		{
			"mesh":10,
			"name":"stair_collision -col.003",
			"rotation":[
				0,
				0.7071068286895752,
				0,
				0.7071068286895752
			],
			"scale":[
				6.912130355834961,
				8.726532936096191,
				8.726532936096191
			],
			"translation":[
				36.35663986206055,
				6.269713878631592,
				-15.645406723022461
			]
		}
	],
	"materials":[
		{
			"doubleSided":true,
			"name":"debug",
			"pbrMetallicRoughness":{
				"baseColorFactor":[
					0.800000011920929,
					0.800000011920929,
					0.800000011920929,
					1
				],
				"metallicFactor":0,
				"roughnessFactor":0.5
			}
		},
		{
			"alphaMode":"MASK",
			"doubleSided":true,
			"name":"transparent",
			"pbrMetallicRoughness":{
				"baseColorFactor":[
					0.800000011920929,
					0.800000011920929,
					0.800000011920929,
					0
				],
				"metallicFactor":0,
				"roughnessFactor":0.5
			}
		}
	],
	"meshes":[
		{
			"name":"Plane.003",
			"primitives":[
				{
					"attributes":{
						"POSITION":0,
						"NORMAL":1,
						"TEXCOORD_0":2
					},
					"indices":3,
					"material":0
				}
			]
		},
		{
			"name":"Plane.004",
			"primitives":[
				{
					"attributes":{
						"POSITION":4,
						"NORMAL":5,
						"TEXCOORD_0":6
					},
					"indices":7,
					"material":0
				}
			]
		},
		{
			"name":"Cube.001",
			"primitives":[
				{
					"attributes":{
						"POSITION":8,
						"NORMAL":9,
						"TEXCOORD_0":10
					},
					"indices":11
				}
			]
		},
		{
			"name":"Plane.005",
			"primitives":[
				{
					"attributes":{
						"POSITION":12,
						"NORMAL":13,
						"TEXCOORD_0":14
					},
					"indices":15,
					"material":0
				}
			]
		},
		{
			"name":"Plane.006",
			"primitives":[
				{
					"attributes":{
						"POSITION":16,
						"NORMAL":17,
						"TEXCOORD_0":18
					},
					"indices":19,
					"material":0
				}
			]
		},
		{
			"name":"Cube.002",
			"primitives":[
				{
					"attributes":{
						"POSITION":20,
						"NORMAL":21,
						"TEXCOORD_0":22
					},
					"indices":23
				}
			]
		},
		{
			"name":"Plane.007",
			"primitives":[
				{
					"attributes":{
						"POSITION":24,
						"NORMAL":25,
						"TEXCOORD_0":26
					},
					"indices":27,
					"material":1
				}
			]
		},
		{
			"name":"Plane.001",
			"primitives":[
				{
					"attributes":{
						"POSITION":28,
						"NORMAL":29,
						"TEXCOORD_0":30,
						"COLOR_0":31,
						"COLOR_1":32
					},
					"indices":33,
					"material":0
				}
			]
		},
		{
			"name":"Plane.002",
			"primitives":[
				{
					"attributes":{
						"POSITION":34,
						"NORMAL":35,
						"TEXCOORD_0":36
					},
					"indices":27,
					"material":1
				}
			]
		},
		{
			"name":"Plane.011",
			"primitives":[
				{
					"attributes":{
						"POSITION":37,
						"NORMAL":38,
						"TEXCOORD_0":39,
						"COLOR_0":40,
						"COLOR_1":41
					},
					"indices":33,
					"material":0
				}
			]
		},
		{
			"name":"Plane.012",
			"primitives":[
				{
					"attributes":{
						"POSITION":42,
						"NORMAL":43,
						"TEXCOORD_0":44
					},
					"indices":27,
					"material":1
				}
			]
		}
	],
	"accessors":[
		{
			"bufferView":0,
			"componentType":5126,
			"count":1002,
			"max":[
				8.299891471862793,
				0.39352089166641235,
				10.480452537536621
			],
			"min":[
				-9.914619445800781,
				-1.3168299198150635,
				-2.6871557235717773
			],
			"type":"VEC3"
		},
		{
			"bufferView":1,
			"componentType":5126,
			"count":1002,
			"type":"VEC3"
		},
		{
			"bufferView":2,
			"componentType":5126,
			"count":1002,
			"type":"VEC2"
		},
		{
			"bufferView":3,
			"componentType":5123,
			"count":2511,
			"type":"SCALAR"
		},
		{
			"bufferView":4,
			"componentType":5126,
			"count":184,
			"max":[
				2.3327553272247314,
				0.1645590215921402,
				6.106706619262695
			],
			"min":[
				-3.0281612873077393,
				-0.5010089874267578,
				1.7844549417495728
			],
			"type":"VEC3"
		},
		{
			"bufferView":5,
			"componentType":5126,
			"count":184,
			"type":"VEC3"
		},
		{
			"bufferView":6,
			"componentType":5126,
			"count":184,
			"type":"VEC2"
		},
		{
			"bufferView":7,
			"componentType":5123,
			"count":312,
			"type":"SCALAR"
		},
		{
			"bufferView":8,
			"componentType":5126,
			"count":24,
			"max":[
				1,
				1,
				1
			],
			"min":[
				-1,
				-1,
				-1
			],
			"type":"VEC3"
		},
		{
			"bufferView":9,
			"componentType":5126,
			"count":24,
			"type":"VEC3"
		},
		{
			"bufferView":10,
			"componentType":5126,
			"count":24,
			"type":"VEC2"
		},
		{
			"bufferView":11,
			"componentType":5123,
			"count":36,
			"type":"SCALAR"
		},
		{
			"bufferView":12,
			"componentType":5126,
			"count":48,
			"max":[
				11.996490478515625,
				-1.3476252555847168,
				1.1573693752288818
			],
			"min":[
				-3.260627269744873,
				-4.59234619140625,
				-1.9121816158294678
			],
			"type":"VEC3"
		},
		{
			"bufferView":13,
			"componentType":5126,
			"count":48,
			"type":"VEC3"
		},
		{
			"bufferView":14,
			"componentType":5126,
			"count":48,
			"type":"VEC2"
		},
		{
			"bufferView":15,
			"componentType":5123,
			"count":84,
			"type":"SCALAR"
		},
		{
			"bufferView":16,
			"componentType":5126,
			"count":72,
			"max":[
				3.190671443939209,
				3.458951950073242,
				4.405033588409424
			],
			"min":[
				-4.196737766265869,
				-0.45179039239883423,
				-0.6929030418395996
			],
			"type":"VEC3"
		},
		{
			"bufferView":17,
			"componentType":5126,
			"count":72,
			"type":"VEC3"
		},
		{
			"bufferView":18,
			"componentType":5126,
			"count":72,
			"type":"VEC2"
		},
		{
			"bufferView":19,
			"componentType":5123,
			"count":108,
			"type":"SCALAR"
		},
		{
			"bufferView":20,
			"componentType":5126,
			"count":36,
			"max":[
				12.512346267700195,
				1,
				0.39464712142944336
			],
			"min":[
				-0.12698158621788025,
				-1,
				-1
			],
			"type":"VEC3"
		},
		{
			"bufferView":21,
			"componentType":5126,
			"count":36,
			"type":"VEC3"
		},
		{
			"bufferView":22,
			"componentType":5126,
			"count":36,
			"type":"VEC2"
		},
		{
			"bufferView":23,
			"componentType":5123,
			"count":60,
			"type":"SCALAR"
		},
		{
			"bufferView":24,
			"componentType":5126,
			"count":8,
			"max":[
				0.504156231880188,
				0.18745681643486023,
				0.31389355659484863
			],
			"min":[
				-0.5040609836578369,
				-0.2349833846092224,
				-0.2972853183746338
			],
			"type":"VEC3"
		},
		{
			"bufferView":25,
			"componentType":5126,
			"count":8,
			"type":"VEC3"
		},
		{
			"bufferView":26,
			"componentType":5126,
			"count":8,
			"type":"VEC2"
		},
		{
			"bufferView":27,
			"componentType":5123,
			"count":12,
			"type":"SCALAR"
		},
		{
			"bufferView":28,
			"componentType":5126,
			"count":260,
			"max":[
				1,
				3.6312782764434814,
				0.8504160642623901
			],
			"min":[
				-9.7876615524292,
				-0.9903023838996887,
				-1
			],
			"type":"VEC3"
		},
		{
			"bufferView":29,
			"componentType":5126,
			"count":260,
			"type":"VEC3"
		},
		{
			"bufferView":30,
			"componentType":5126,
			"count":260,
			"type":"VEC2"
		},
		{
			"bufferView":31,
			"componentType":5121,
			"count":260,
			"normalized":true,
			"type":"VEC4"
		},
		{
			"bufferView":32,
			"componentType":5123,
			"count":260,
			"normalized":true,
			"type":"VEC4"
		},
		{
			"bufferView":33,
			"componentType":5123,
			"count":534,
			"type":"SCALAR"
		},
		{
			"bufferView":34,
			"componentType":5126,
			"count":8,
			"max":[
				0.504156231880188,
				0.18745681643486023,
				0.31389355659484863
			],
			"min":[
				-0.023079335689544678,
				-0.2655547559261322,
				-0.4159261882305145
			],
			"type":"VEC3"
		},
		{
			"bufferView":35,
			"componentType":5126,
			"count":8,
			"type":"VEC3"
		},
		{
			"bufferView":36,
			"componentType":5126,
			"count":8,
			"type":"VEC2"
		},
		{
			"bufferView":37,
			"componentType":5126,
			"count":260,
			"max":[
				1,
				3.6312782764434814,
				0.8504160642623901
			],
			"min":[
				-9.7876615524292,
				-0.9903023838996887,
				-1
			],
			"type":"VEC3"
		},
		{
			"bufferView":38,
			"componentType":5126,
			"count":260,
			"type":"VEC3"
		},
		{
			"bufferView":39,
			"componentType":5126,
			"count":260,
			"type":"VEC2"
		},
		{
			"bufferView":40,
			"componentType":5121,
			"count":260,
			"normalized":true,
			"type":"VEC4"
		},
		{
			"bufferView":41,
			"componentType":5123,
			"count":260,
			"normalized":true,
			"type":"VEC4"
		},
		{
			"bufferView":42,
			"componentType":5126,
			"count":8,
			"max":[
				0.504156231880188,
				0.18745681643486023,
				0.31389355659484863
			],
			"min":[
				-0.023079335689544678,
				-0.2655547559261322,
				-0.4159261882305145
			],
			"type":"VEC3"
		},
		{
			"bufferView":43,
			"componentType":5126,
			"count":8,
			"type":"VEC3"
		},
		{
			"bufferView":44,
			"componentType":5126,
			"count":8,
			"type":"VEC2"
		}
	],
	"bufferViews":[
		{
			"buffer":0,
			"byteLength":12024,
			"byteOffset":0,
			"target":34962
		},
		{
			"buffer":0,
			"byteLength":12024,
			"byteOffset":12024,
			"target":34962
		},
		{
			"buffer":0,
			"byteLength":8016,
			"byteOffset":24048,
			"target":34962
		},
		{
			"buffer":0,
			"byteLength":5022,
			"byteOffset":32064,
			"target":34963
		},
		{
			"buffer":0,
			"byteLength":2208,
			"byteOffset":37088,
			"target":34962
		},
		{
			"buffer":0,
			"byteLength":2208,
			"byteOffset":39296,
			"target":34962
		},
		{
			"buffer":0,
			"byteLength":1472,
			"byteOffset":41504,
			"target":34962
		},
		{
			"buffer":0,
			"byteLength":624,
			"byteOffset":42976,
			"target":34963
		},
		{
			"buffer":0,
			"byteLength":288,
			"byteOffset":43600,
			"target":34962
		},
		{
			"buffer":0,
			"byteLength":288,
			"byteOffset":43888,
			"target":34962
		},
		{
			"buffer":0,
			"byteLength":192,
			"byteOffset":44176,
			"target":34962
		},
		{
			"buffer":0,
			"byteLength":72,
			"byteOffset":44368,
			"target":34963
		},
		{
			"buffer":0,
			"byteLength":576,
			"byteOffset":44440,
			"target":34962
		},
		{
			"buffer":0,
			"byteLength":576,
			"byteOffset":45016,
			"target":34962
		},
		{
			"buffer":0,
			"byteLength":384,
			"byteOffset":45592,
			"target":34962
		},
		{
			"buffer":0,
			"byteLength":168,
			"byteOffset":45976,
			"target":34963
		},
		{
			"buffer":0,
			"byteLength":864,
			"byteOffset":46144,
			"target":34962
		},
		{
			"buffer":0,
			"byteLength":864,
			"byteOffset":47008,
			"target":34962
		},
		{
			"buffer":0,
			"byteLength":576,
			"byteOffset":47872,
			"target":34962
		},
		{
			"buffer":0,
			"byteLength":216,
			"byteOffset":48448,
			"target":34963
		},
		{
			"buffer":0,
			"byteLength":432,
			"byteOffset":48664,
			"target":34962
		},
		{
			"buffer":0,
			"byteLength":432,
			"byteOffset":49096,
			"target":34962
		},
		{
			"buffer":0,
			"byteLength":288,
			"byteOffset":49528,
			"target":34962
		},
		{
			"buffer":0,
			"byteLength":120,
			"byteOffset":49816,
			"target":34963
		},
		{
			"buffer":0,
			"byteLength":96,
			"byteOffset":49936,
			"target":34962
		},
		{
			"buffer":0,
			"byteLength":96,
			"byteOffset":50032,
			"target":34962
		},
		{
			"buffer":0,
			"byteLength":64,
			"byteOffset":50128,
			"target":34962
		},
		{
			"buffer":0,
			"byteLength":24,
			"byteOffset":50192,
			"target":34963
		},
		{
			"buffer":0,
			"byteLength":3120,
			"byteOffset":50216,
			"target":34962
		},
		{
			"buffer":0,
			"byteLength":3120,
			"byteOffset":53336,
			"target":34962
		},
		{
			"buffer":0,
			"byteLength":2080,
			"byteOffset":56456,
			"target":34962
		},
		{
			"buffer":0,
			"byteLength":1040,
			"byteOffset":58536,
			"target":34962
		},
		{
			"buffer":0,
			"byteLength":2080,
			"byteOffset":59576,
			"target":34962
		},
		{
			"buffer":0,
			"byteLength":1068,
			"byteOffset":61656,
			"target":34963
		},
		{
			"buffer":0,
			"byteLength":96,
			"byteOffset":62724,
			"target":34962
		},
		{
			"buffer":0,
			"byteLength":96,
			"byteOffset":62820,
			"target":34962
		},
		{
			"buffer":0,
			"byteLength":64,
			"byteOffset":62916,
			"target":34962
		},
		{
			"buffer":0,
			"byteLength":3120,
			"byteOffset":62980,
			"target":34962
		},
		{
			"buffer":0,
			"byteLength":3120,
			"byteOffset":66100,
			"target":34962
		},
		{
			"buffer":0,
			"byteLength":2080,
			"byteOffset":69220,
			"target":34962
		},
		{
			"buffer":0,
			"byteLength":1040,
			"byteOffset":71300,
			"target":34962
		},
		{
			"buffer":0,
			"byteLength":2080,
			"byteOffset":72340,
			"target":34962
		},
		{
			"buffer":0,
			"byteLength":96,
			"byteOffset":74420,
			"target":34962
		},
		{
			"buffer":0,
			"byteLength":96,
			"byteOffset":74516,
			"target":34962
		},
		{
			"buffer":0,
			"byteLength":64,
			"byteOffset":74612,
			"target":34962
		}
	],
	"buffers":[
		{
			"byteLength":74676,
			"uri":"jvo.bin"
		}
	]
}
