{
	"asset":{
		"generator":"Khronos glTF Blender I/O v4.4.55",
		"version":"2.0"
	},
	"scene":0,
	"scenes":[
		{
			"name":"Scene",
			"nodes":[
				0,
				1,
				2,
				3,
				4,
				5
			]
		}
	],
	"nodes":[
		{
			"name":"Empty",
			"scale":[
				87.55554962158203,
				87.55554962158203,
				87.55554962158203
			],
			"translation":[
				42.51710891723633,
				-0.21232570707798004,
				-7.052819728851318
			]
		},
		{
			"mesh":0,
			"name":"basis -col",
			"scale":[
				8.726532936096191,
				8.726532936096191,
				8.726532936096191
			],
			"translation":[
				-1.4017791748046875,
				4.180055618286133,
				-27.09092903137207
			]
		},
		{
			"mesh":1,
			"name":"muurtjes_aula -col",
			"scale":[
				8.624539375305176,
				8.624539375305176,
				8.624539375305176
			],
			"translation":[
				-1.4017791748046875,
				4.180055618286133,
				-27.09092903137207
			]
		},
		{
			"name":"Empty.001",
			"translation":[
				-3.916651964187622,
				4.65230131149292,
				0
			]
		},
		{
			"mesh":2,
			"name":"stairs_aula",
			"translation":[
				15.60958480834961,
				0,
				0
			]
		},
		{
			"mesh":3,
			"name":"borders -col",
			"rotation":[
				0.7071068286895752,
				0,
				0,
				0.7071068286895752
			],
			"translation":[
				14.53190803527832,
				1,
				-15.562602043151855
			]
		}
	],
	"materials":[
		{
			"doubleSided":true,
			"name":"debug",
			"pbrMetallicRoughness":{
				"baseColorFactor":[
					0.800000011920929,
					0.800000011920929,
					0.800000011920929,
					1
				],
				"metallicFactor":0,
				"roughnessFactor":0.5
			}
		}
	],
	"meshes":[
		{
			"name":"Plane.003",
			"primitives":[
				{
					"attributes":{
						"POSITION":0,
						"NORMAL":1,
						"TEXCOORD_0":2
					},
					"indices":3,
					"material":0
				}
			]
		},
		{
			"name":"Plane.004",
			"primitives":[
				{
					"attributes":{
						"POSITION":4,
						"NORMAL":5,
						"TEXCOORD_0":6
					},
					"indices":7,
					"material":0
				}
			]
		},
		{
			"name":"Cube.001",
			"primitives":[
				{
					"attributes":{
						"POSITION":8,
						"NORMAL":9,
						"TEXCOORD_0":10
					},
					"indices":11
				}
			]
		},
		{
			"name":"Plane.005",
			"primitives":[
				{
					"attributes":{
						"POSITION":12,
						"NORMAL":13,
						"TEXCOORD_0":14
					},
					"indices":15,
					"material":0
				}
			]
		}
	],
	"accessors":[
		{
			"bufferView":0,
			"componentType":5126,
			"count":620,
			"max":[
				8.299891471862793,
				0.1464766263961792,
				10.480452537536621
			],
			"min":[
				-9.914619445800781,
				-1.316830039024353,
				-2.6871554851531982
			],
			"type":"VEC3"
		},
		{
			"bufferView":1,
			"componentType":5126,
			"count":620,
			"type":"VEC3"
		},
		{
			"bufferView":2,
			"componentType":5126,
			"count":620,
			"type":"VEC2"
		},
		{
			"bufferView":3,
			"componentType":5123,
			"count":1680,
			"type":"SCALAR"
		},
		{
			"bufferView":4,
			"componentType":5126,
			"count":166,
			"max":[
				2.4033594131469727,
				0.08845594525337219,
				3.2754714488983154
			],
			"min":[
				-2.9865498542785645,
				-0.5010089874267578,
				1.7844549417495728
			],
			"type":"VEC3"
		},
		{
			"bufferView":5,
			"componentType":5126,
			"count":166,
			"type":"VEC3"
		},
		{
			"bufferView":6,
			"componentType":5126,
			"count":166,
			"type":"VEC2"
		},
		{
			"bufferView":7,
			"componentType":5123,
			"count":276,
			"type":"SCALAR"
		},
		{
			"bufferView":8,
			"componentType":5126,
			"count":24,
			"max":[
				1,
				1,
				1
			],
			"min":[
				-1,
				-1,
				-1
			],
			"type":"VEC3"
		},
		{
			"bufferView":9,
			"componentType":5126,
			"count":24,
			"type":"VEC3"
		},
		{
			"bufferView":10,
			"componentType":5126,
			"count":24,
			"type":"VEC2"
		},
		{
			"bufferView":11,
			"componentType":5123,
			"count":36,
			"type":"SCALAR"
		},
		{
			"bufferView":12,
			"componentType":5126,
			"count":12,
			"max":[
				11.996490478515625,
				-1.3476252555847168,
				1.1573693752288818
			],
			"min":[
				-3.260627269744873,
				-4.59234619140625,
				-1.9121816158294678
			],
			"type":"VEC3"
		},
		{
			"bufferView":13,
			"componentType":5126,
			"count":12,
			"type":"VEC3"
		},
		{
			"bufferView":14,
			"componentType":5126,
			"count":12,
			"type":"VEC2"
		},
		{
			"bufferView":15,
			"componentType":5123,
			"count":18,
			"type":"SCALAR"
		}
	],
	"bufferViews":[
		{
			"buffer":0,
			"byteLength":7440,
			"byteOffset":0,
			"target":34962
		},
		{
			"buffer":0,
			"byteLength":7440,
			"byteOffset":7440,
			"target":34962
		},
		{
			"buffer":0,
			"byteLength":4960,
			"byteOffset":14880,
			"target":34962
		},
		{
			"buffer":0,
			"byteLength":3360,
			"byteOffset":19840,
			"target":34963
		},
		{
			"buffer":0,
			"byteLength":1992,
			"byteOffset":23200,
			"target":34962
		},
		{
			"buffer":0,
			"byteLength":1992,
			"byteOffset":25192,
			"target":34962
		},
		{
			"buffer":0,
			"byteLength":1328,
			"byteOffset":27184,
			"target":34962
		},
		{
			"buffer":0,
			"byteLength":552,
			"byteOffset":28512,
			"target":34963
		},
		{
			"buffer":0,
			"byteLength":288,
			"byteOffset":29064,
			"target":34962
		},
		{
			"buffer":0,
			"byteLength":288,
			"byteOffset":29352,
			"target":34962
		},
		{
			"buffer":0,
			"byteLength":192,
			"byteOffset":29640,
			"target":34962
		},
		{
			"buffer":0,
			"byteLength":72,
			"byteOffset":29832,
			"target":34963
		},
		{
			"buffer":0,
			"byteLength":144,
			"byteOffset":29904,
			"target":34962
		},
		{
			"buffer":0,
			"byteLength":144,
			"byteOffset":30048,
			"target":34962
		},
		{
			"buffer":0,
			"byteLength":96,
			"byteOffset":30192,
			"target":34962
		},
		{
			"buffer":0,
			"byteLength":36,
			"byteOffset":30288,
			"target":34963
		}
	],
	"buffers":[
		{
			"byteLength":30324,
			"uri":"jvo.bin"
		}
	]
}
