{
	"asset":{
		"generator":"Khronos glTF Blender I/O v4.4.55",
		"version":"2.0"
	},
	"scene":0,
	"scenes":[
		{
			"name":"Scene",
			"nodes":[
				0,
				1,
				2,
				3,
				4,
				5,
				6
			]
		}
	],
	"nodes":[
		{
			"mesh":0,
			"name":"basis -col",
			"scale":[
				8.726532936096191,
				8.726532936096191,
				8.726532936096191
			],
			"translation":[
				-1.4017791748046875,
				4.180055618286133,
				-27.09092903137207
			]
		},
		{
			"mesh":1,
			"name":"muurtjes_aula -col",
			"scale":[
				8.624539375305176,
				8.624539375305176,
				8.624539375305176
			],
			"translation":[
				-1.2223386764526367,
				4.1217780113220215,
				-26.910194396972656
			]
		},
		{
			"mesh":2,
			"name":"stairs_aula",
			"translation":[
				15.60958480834961,
				0,
				0
			]
		},
		{
			"mesh":3,
			"name":"borders -col",
			"rotation":[
				0.7071068286895752,
				0,
				0,
				0.7071068286895752
			],
			"translation":[
				14.53190803527832,
				0.9512062072753906,
				-15.562602043151855
			]
		},
		{
			"mesh":4,
			"name":"stairs.001",
			"translation":[
				15.704249382019043,
				0.18497790396213531,
				-3.500333786010742
			]
		},
		{
			"mesh":4,
			"name":"stairs",
			"translation":[
				-22.514389038085938,
				0.18497790396213531,
				-3.500333786010742
			]
		},
		{
			"mesh":5,
			"name":"Cube",
			"translation":[
				13,
				0.7794132232666016,
				-16
			]
		}
	],
	"materials":[
		{
			"doubleSided":true,
			"name":"debug",
			"pbrMetallicRoughness":{
				"baseColorFactor":[
					0.800000011920929,
					0.800000011920929,
					0.800000011920929,
					1
				],
				"metallicFactor":0,
				"roughnessFactor":0.5
			}
		}
	],
	"meshes":[
		{
			"name":"Plane.003",
			"primitives":[
				{
					"attributes":{
						"POSITION":0,
						"NORMAL":1,
						"TEXCOORD_0":2
					},
					"indices":3,
					"material":0
				}
			]
		},
		{
			"name":"Plane.004",
			"primitives":[
				{
					"attributes":{
						"POSITION":4,
						"NORMAL":5,
						"TEXCOORD_0":6
					},
					"indices":7,
					"material":0
				}
			]
		},
		{
			"name":"Cube.001",
			"primitives":[
				{
					"attributes":{
						"POSITION":8,
						"NORMAL":9,
						"TEXCOORD_0":10
					},
					"indices":11
				}
			]
		},
		{
			"name":"Plane.005",
			"primitives":[
				{
					"attributes":{
						"POSITION":12,
						"NORMAL":13,
						"TEXCOORD_0":14
					},
					"indices":15,
					"material":0
				}
			]
		},
		{
			"name":"Plane.006",
			"primitives":[
				{
					"attributes":{
						"POSITION":16,
						"NORMAL":17,
						"TEXCOORD_0":18
					},
					"indices":19,
					"material":0
				}
			]
		},
		{
			"name":"Cube.002",
			"primitives":[
				{
					"attributes":{
						"POSITION":20,
						"NORMAL":21,
						"TEXCOORD_0":22
					},
					"indices":23
				}
			]
		}
	],
	"accessors":[
		{
			"bufferView":0,
			"componentType":5126,
			"count":681,
			"max":[
				8.299891471862793,
				0.35465365648269653,
				10.480452537536621
			],
			"min":[
				-9.914619445800781,
				-1.316830039024353,
				-2.6871554851531982
			],
			"type":"VEC3"
		},
		{
			"bufferView":1,
			"componentType":5126,
			"count":681,
			"type":"VEC3"
		},
		{
			"bufferView":2,
			"componentType":5126,
			"count":681,
			"type":"VEC2"
		},
		{
			"bufferView":3,
			"componentType":5123,
			"count":1800,
			"type":"SCALAR"
		},
		{
			"bufferView":4,
			"componentType":5126,
			"count":168,
			"max":[
				2.4033594131469727,
				0.08845595270395279,
				3.2754712104797363
			],
			"min":[
				-3.0281612873077393,
				-0.5010089874267578,
				1.7844549417495728
			],
			"type":"VEC3"
		},
		{
			"bufferView":5,
			"componentType":5126,
			"count":168,
			"type":"VEC3"
		},
		{
			"bufferView":6,
			"componentType":5126,
			"count":168,
			"type":"VEC2"
		},
		{
			"bufferView":7,
			"componentType":5123,
			"count":276,
			"type":"SCALAR"
		},
		{
			"bufferView":8,
			"componentType":5126,
			"count":24,
			"max":[
				1,
				1,
				1
			],
			"min":[
				-1,
				-1,
				-1
			],
			"type":"VEC3"
		},
		{
			"bufferView":9,
			"componentType":5126,
			"count":24,
			"type":"VEC3"
		},
		{
			"bufferView":10,
			"componentType":5126,
			"count":24,
			"type":"VEC2"
		},
		{
			"bufferView":11,
			"componentType":5123,
			"count":36,
			"type":"SCALAR"
		},
		{
			"bufferView":12,
			"componentType":5126,
			"count":12,
			"max":[
				11.996490478515625,
				-1.3476252555847168,
				1.1573693752288818
			],
			"min":[
				-3.260627269744873,
				-4.59234619140625,
				-1.9121816158294678
			],
			"type":"VEC3"
		},
		{
			"bufferView":13,
			"componentType":5126,
			"count":12,
			"type":"VEC3"
		},
		{
			"bufferView":14,
			"componentType":5126,
			"count":12,
			"type":"VEC2"
		},
		{
			"bufferView":15,
			"componentType":5123,
			"count":18,
			"type":"SCALAR"
		},
		{
			"bufferView":16,
			"componentType":5126,
			"count":72,
			"max":[
				3.190671443939209,
				3.458951950073242,
				4.405033588409424
			],
			"min":[
				-4.196737766265869,
				-0.45179039239883423,
				-0.6929030418395996
			],
			"type":"VEC3"
		},
		{
			"bufferView":17,
			"componentType":5126,
			"count":72,
			"type":"VEC3"
		},
		{
			"bufferView":18,
			"componentType":5126,
			"count":72,
			"type":"VEC2"
		},
		{
			"bufferView":19,
			"componentType":5123,
			"count":108,
			"type":"SCALAR"
		},
		{
			"bufferView":20,
			"componentType":5126,
			"count":36,
			"max":[
				12.512346267700195,
				1,
				0.39464712142944336
			],
			"min":[
				-0.12698158621788025,
				-1,
				-1
			],
			"type":"VEC3"
		},
		{
			"bufferView":21,
			"componentType":5126,
			"count":36,
			"type":"VEC3"
		},
		{
			"bufferView":22,
			"componentType":5126,
			"count":36,
			"type":"VEC2"
		},
		{
			"bufferView":23,
			"componentType":5123,
			"count":60,
			"type":"SCALAR"
		}
	],
	"bufferViews":[
		{
			"buffer":0,
			"byteLength":8172,
			"byteOffset":0,
			"target":34962
		},
		{
			"buffer":0,
			"byteLength":8172,
			"byteOffset":8172,
			"target":34962
		},
		{
			"buffer":0,
			"byteLength":5448,
			"byteOffset":16344,
			"target":34962
		},
		{
			"buffer":0,
			"byteLength":3600,
			"byteOffset":21792,
			"target":34963
		},
		{
			"buffer":0,
			"byteLength":2016,
			"byteOffset":25392,
			"target":34962
		},
		{
			"buffer":0,
			"byteLength":2016,
			"byteOffset":27408,
			"target":34962
		},
		{
			"buffer":0,
			"byteLength":1344,
			"byteOffset":29424,
			"target":34962
		},
		{
			"buffer":0,
			"byteLength":552,
			"byteOffset":30768,
			"target":34963
		},
		{
			"buffer":0,
			"byteLength":288,
			"byteOffset":31320,
			"target":34962
		},
		{
			"buffer":0,
			"byteLength":288,
			"byteOffset":31608,
			"target":34962
		},
		{
			"buffer":0,
			"byteLength":192,
			"byteOffset":31896,
			"target":34962
		},
		{
			"buffer":0,
			"byteLength":72,
			"byteOffset":32088,
			"target":34963
		},
		{
			"buffer":0,
			"byteLength":144,
			"byteOffset":32160,
			"target":34962
		},
		{
			"buffer":0,
			"byteLength":144,
			"byteOffset":32304,
			"target":34962
		},
		{
			"buffer":0,
			"byteLength":96,
			"byteOffset":32448,
			"target":34962
		},
		{
			"buffer":0,
			"byteLength":36,
			"byteOffset":32544,
			"target":34963
		},
		{
			"buffer":0,
			"byteLength":864,
			"byteOffset":32580,
			"target":34962
		},
		{
			"buffer":0,
			"byteLength":864,
			"byteOffset":33444,
			"target":34962
		},
		{
			"buffer":0,
			"byteLength":576,
			"byteOffset":34308,
			"target":34962
		},
		{
			"buffer":0,
			"byteLength":216,
			"byteOffset":34884,
			"target":34963
		},
		{
			"buffer":0,
			"byteLength":432,
			"byteOffset":35100,
			"target":34962
		},
		{
			"buffer":0,
			"byteLength":432,
			"byteOffset":35532,
			"target":34962
		},
		{
			"buffer":0,
			"byteLength":288,
			"byteOffset":35964,
			"target":34962
		},
		{
			"buffer":0,
			"byteLength":120,
			"byteOffset":36252,
			"target":34963
		}
	],
	"buffers":[
		{
			"byteLength":36372,
			"uri":"jvo.bin"
		}
	]
}
