{
	"asset":{
		"generator":"Khronos glTF Blender I/O v4.4.55",
		"version":"2.0"
	},
	"scene":0,
	"scenes":[
		{
			"name":"Scene",
			"nodes":[
				0,
				1,
				2,
				3,
				4
			]
		}
	],
	"nodes":[
		{
			"name":"Empty",
			"scale":[
				95.83094024658203,
				95.83094024658203,
				95.83094024658203
			],
			"translation":[
				-81.7718505859375,
				0,
				-9.109861373901367
			]
		},
		{
			"mesh":0,
			"name":"basis -col",
			"scale":[
				8.624539375305176,
				8.624539375305176,
				8.624539375305176
			],
			"translation":[
				-1.4017791748046875,
				4.180055618286133,
				-27.09092903137207
			]
		},
		{
			"mesh":1,
			"name":"muurtjes_aula -col",
			"scale":[
				8.624539375305176,
				8.624539375305176,
				8.624539375305176
			],
			"translation":[
				-1.4017791748046875,
				4.180055618286133,
				-27.09092903137207
			]
		},
		{
			"name":"Empty.001",
			"translation":[
				-3.916651964187622,
				4.65230131149292,
				0
			]
		},
		{
			"mesh":2,
			"name":"stairs_aula",
			"translation":[
				15.60958480834961,
				0,
				0
			]
		}
	],
	"materials":[
		{
			"doubleSided":true,
			"name":"debug",
			"pbrMetallicRoughness":{
				"baseColorFactor":[
					0.800000011920929,
					0.800000011920929,
					0.800000011920929,
					1
				],
				"metallicFactor":0,
				"roughnessFactor":0.5
			}
		}
	],
	"meshes":[
		{
			"name":"Plane.003",
			"primitives":[
				{
					"attributes":{
						"POSITION":0,
						"NORMAL":1,
						"TEXCOORD_0":2
					},
					"indices":3,
					"material":0
				}
			]
		},
		{
			"name":"Plane.004",
			"primitives":[
				{
					"attributes":{
						"POSITION":4,
						"NORMAL":5,
						"TEXCOORD_0":6
					},
					"indices":7,
					"material":0
				}
			]
		},
		{
			"name":"Cube.001",
			"primitives":[
				{
					"attributes":{
						"POSITION":8,
						"NORMAL":9,
						"TEXCOORD_0":10
					},
					"indices":11
				}
			]
		}
	],
	"accessors":[
		{
			"bufferView":0,
			"componentType":5126,
			"count":489,
			"max":[
				8.299891471862793,
				0.3667539358139038,
				10.480452537536621
			],
			"min":[
				-9.914619445800781,
				-1.316830039024353,
				-2.6871554851531982
			],
			"type":"VEC3"
		},
		{
			"bufferView":1,
			"componentType":5126,
			"count":489,
			"type":"VEC3"
		},
		{
			"bufferView":2,
			"componentType":5126,
			"count":489,
			"type":"VEC2"
		},
		{
			"bufferView":3,
			"componentType":5123,
			"count":1407,
			"type":"SCALAR"
		},
		{
			"bufferView":4,
			"componentType":5126,
			"count":86,
			"max":[
				2.4033594131469727,
				0.08845594525337219,
				3.2754709720611572
			],
			"min":[
				-0.29048293828964233,
				-0.501008927822113,
				1.7844549417495728
			],
			"type":"VEC3"
		},
		{
			"bufferView":5,
			"componentType":5126,
			"count":86,
			"type":"VEC3"
		},
		{
			"bufferView":6,
			"componentType":5126,
			"count":86,
			"type":"VEC2"
		},
		{
			"bufferView":7,
			"componentType":5123,
			"count":138,
			"type":"SCALAR"
		},
		{
			"bufferView":8,
			"componentType":5126,
			"count":24,
			"max":[
				1,
				1,
				1
			],
			"min":[
				-1,
				-1,
				-1
			],
			"type":"VEC3"
		},
		{
			"bufferView":9,
			"componentType":5126,
			"count":24,
			"type":"VEC3"
		},
		{
			"bufferView":10,
			"componentType":5126,
			"count":24,
			"type":"VEC2"
		},
		{
			"bufferView":11,
			"componentType":5123,
			"count":36,
			"type":"SCALAR"
		}
	],
	"bufferViews":[
		{
			"buffer":0,
			"byteLength":5868,
			"byteOffset":0,
			"target":34962
		},
		{
			"buffer":0,
			"byteLength":5868,
			"byteOffset":5868,
			"target":34962
		},
		{
			"buffer":0,
			"byteLength":3912,
			"byteOffset":11736,
			"target":34962
		},
		{
			"buffer":0,
			"byteLength":2814,
			"byteOffset":15648,
			"target":34963
		},
		{
			"buffer":0,
			"byteLength":1032,
			"byteOffset":18464,
			"target":34962
		},
		{
			"buffer":0,
			"byteLength":1032,
			"byteOffset":19496,
			"target":34962
		},
		{
			"buffer":0,
			"byteLength":688,
			"byteOffset":20528,
			"target":34962
		},
		{
			"buffer":0,
			"byteLength":276,
			"byteOffset":21216,
			"target":34963
		},
		{
			"buffer":0,
			"byteLength":288,
			"byteOffset":21492,
			"target":34962
		},
		{
			"buffer":0,
			"byteLength":288,
			"byteOffset":21780,
			"target":34962
		},
		{
			"buffer":0,
			"byteLength":192,
			"byteOffset":22068,
			"target":34962
		},
		{
			"buffer":0,
			"byteLength":72,
			"byteOffset":22260,
			"target":34963
		}
	],
	"buffers":[
		{
			"byteLength":22332,
			"uri":"jvo.bin"
		}
	]
}
