{
	"asset":{
		"generator":"Khronos glTF Blender I/O v4.4.55",
		"version":"2.0"
	},
	"scene":0,
	"scenes":[
		{
			"name":"Scene",
			"nodes":[
				0,
				1,
				2,
				3,
				4,
				5,
				6,
				7,
				8
			]
		}
	],
	"nodes":[
		{
			"mesh":0,
			"name":"basis -col",
			"scale":[
				8.726532936096191,
				8.726532936096191,
				8.726532936096191
			],
			"translation":[
				-1.4017791748046875,
				4.180055618286133,
				-27.09092903137207
			]
		},
		{
			"mesh":1,
			"name":"muurtjes_aula -col",
			"scale":[
				8.624539375305176,
				8.624539375305176,
				8.624539375305176
			],
			"translation":[
				-1.2223386764526367,
				4.1217780113220215,
				-26.910194396972656
			]
		},
		{
			"mesh":2,
			"name":"stairs_aula",
			"translation":[
				15.60958480834961,
				0,
				0
			]
		},
		{
			"mesh":3,
			"name":"borders -col",
			"rotation":[
				0.7071068286895752,
				0,
				0,
				0.7071068286895752
			],
			"translation":[
				14.53190803527832,
				0.9512062072753906,
				-15.562602043151855
			]
		},
		{
			"mesh":4,
			"name":"stairs.001",
			"translation":[
				15.704249382019043,
				0.18497790396213531,
				-3.500333786010742
			]
		},
		{
			"mesh":4,
			"name":"stairs",
			"translation":[
				-22.514389038085938,
				0.18497790396213531,
				-3.500333786010742
			]
		},
		{
			"mesh":5,
			"name":"Cube",
			"translation":[
				13,
				0.7794132232666016,
				-16
			]
		},
		{
			"mesh":6,
			"name":"stair_collision -col",
			"scale":[
				7.608378887176514,
				8.726532936096191,
				8.726532936096191
			],
			"translation":[
				-23.110698699951172,
				1.982024908065796,
				-1.9843578338623047
			]
		},
		{
			"mesh":6,
			"name":"stair_collision -col.001",
			"scale":[
				6.912130355834961,
				8.726532936096191,
				8.726532936096191
			],
			"translation":[
				14.78129768371582,
				1.982024908065796,
				-1.9843578338623047
			]
		}
	],
	"materials":[
		{
			"doubleSided":true,
			"name":"debug",
			"pbrMetallicRoughness":{
				"baseColorFactor":[
					0.800000011920929,
					0.800000011920929,
					0.800000011920929,
					1
				],
				"metallicFactor":0,
				"roughnessFactor":0.5
			}
		},
		{
			"alphaMode":"MASK",
			"doubleSided":true,
			"name":"transparent",
			"pbrMetallicRoughness":{
				"baseColorFactor":[
					0.800000011920929,
					0.800000011920929,
					0.800000011920929,
					0
				],
				"metallicFactor":0,
				"roughnessFactor":0.5
			}
		}
	],
	"meshes":[
		{
			"name":"Plane.003",
			"primitives":[
				{
					"attributes":{
						"POSITION":0,
						"NORMAL":1,
						"TEXCOORD_0":2
					},
					"indices":3,
					"material":0
				}
			]
		},
		{
			"name":"Plane.004",
			"primitives":[
				{
					"attributes":{
						"POSITION":4,
						"NORMAL":5,
						"TEXCOORD_0":6
					},
					"indices":7,
					"material":0
				}
			]
		},
		{
			"name":"Cube.001",
			"primitives":[
				{
					"attributes":{
						"POSITION":8,
						"NORMAL":9,
						"TEXCOORD_0":10
					},
					"indices":11
				}
			]
		},
		{
			"name":"Plane.005",
			"primitives":[
				{
					"attributes":{
						"POSITION":12,
						"NORMAL":13,
						"TEXCOORD_0":14
					},
					"indices":15,
					"material":0
				}
			]
		},
		{
			"name":"Plane.006",
			"primitives":[
				{
					"attributes":{
						"POSITION":16,
						"NORMAL":17,
						"TEXCOORD_0":18
					},
					"indices":19,
					"material":0
				}
			]
		},
		{
			"name":"Cube.002",
			"primitives":[
				{
					"attributes":{
						"POSITION":20,
						"NORMAL":21,
						"TEXCOORD_0":22
					},
					"indices":23
				}
			]
		},
		{
			"name":"Plane.007",
			"primitives":[
				{
					"attributes":{
						"POSITION":24,
						"NORMAL":25,
						"TEXCOORD_0":26
					},
					"indices":27,
					"material":1
				}
			]
		}
	],
	"accessors":[
		{
			"bufferView":0,
			"componentType":5126,
			"count":913,
			"max":[
				8.299891471862793,
				0.39352089166641235,
				10.480452537536621
			],
			"min":[
				-9.914619445800781,
				-1.316830039024353,
				-2.6871554851531982
			],
			"type":"VEC3"
		},
		{
			"bufferView":1,
			"componentType":5126,
			"count":913,
			"type":"VEC3"
		},
		{
			"bufferView":2,
			"componentType":5126,
			"count":913,
			"type":"VEC2"
		},
		{
			"bufferView":3,
			"componentType":5123,
			"count":2304,
			"type":"SCALAR"
		},
		{
			"bufferView":4,
			"componentType":5126,
			"count":184,
			"max":[
				2.3327553272247314,
				0.1645590215921402,
				6.106706619262695
			],
			"min":[
				-3.0281612873077393,
				-0.5010089874267578,
				1.7844549417495728
			],
			"type":"VEC3"
		},
		{
			"bufferView":5,
			"componentType":5126,
			"count":184,
			"type":"VEC3"
		},
		{
			"bufferView":6,
			"componentType":5126,
			"count":184,
			"type":"VEC2"
		},
		{
			"bufferView":7,
			"componentType":5123,
			"count":312,
			"type":"SCALAR"
		},
		{
			"bufferView":8,
			"componentType":5126,
			"count":24,
			"max":[
				1,
				1,
				1
			],
			"min":[
				-1,
				-1,
				-1
			],
			"type":"VEC3"
		},
		{
			"bufferView":9,
			"componentType":5126,
			"count":24,
			"type":"VEC3"
		},
		{
			"bufferView":10,
			"componentType":5126,
			"count":24,
			"type":"VEC2"
		},
		{
			"bufferView":11,
			"componentType":5123,
			"count":36,
			"type":"SCALAR"
		},
		{
			"bufferView":12,
			"componentType":5126,
			"count":48,
			"max":[
				11.996490478515625,
				-1.3476252555847168,
				1.1573693752288818
			],
			"min":[
				-3.260627269744873,
				-4.59234619140625,
				-1.9121816158294678
			],
			"type":"VEC3"
		},
		{
			"bufferView":13,
			"componentType":5126,
			"count":48,
			"type":"VEC3"
		},
		{
			"bufferView":14,
			"componentType":5126,
			"count":48,
			"type":"VEC2"
		},
		{
			"bufferView":15,
			"componentType":5123,
			"count":84,
			"type":"SCALAR"
		},
		{
			"bufferView":16,
			"componentType":5126,
			"count":72,
			"max":[
				3.190671443939209,
				3.458951950073242,
				4.405033588409424
			],
			"min":[
				-4.196737766265869,
				-0.45179039239883423,
				-0.6929030418395996
			],
			"type":"VEC3"
		},
		{
			"bufferView":17,
			"componentType":5126,
			"count":72,
			"type":"VEC3"
		},
		{
			"bufferView":18,
			"componentType":5126,
			"count":72,
			"type":"VEC2"
		},
		{
			"bufferView":19,
			"componentType":5123,
			"count":108,
			"type":"SCALAR"
		},
		{
			"bufferView":20,
			"componentType":5126,
			"count":36,
			"max":[
				12.512346267700195,
				1,
				0.39464712142944336
			],
			"min":[
				-0.12698158621788025,
				-1,
				-1
			],
			"type":"VEC3"
		},
		{
			"bufferView":21,
			"componentType":5126,
			"count":36,
			"type":"VEC3"
		},
		{
			"bufferView":22,
			"componentType":5126,
			"count":36,
			"type":"VEC2"
		},
		{
			"bufferView":23,
			"componentType":5123,
			"count":60,
			"type":"SCALAR"
		},
		{
			"bufferView":24,
			"componentType":5126,
			"count":8,
			"max":[
				0.504156231880188,
				0.18745681643486023,
				0.31389355659484863
			],
			"min":[
				-0.5040609836578369,
				-0.2349833846092224,
				-0.2972853183746338
			],
			"type":"VEC3"
		},
		{
			"bufferView":25,
			"componentType":5126,
			"count":8,
			"type":"VEC3"
		},
		{
			"bufferView":26,
			"componentType":5126,
			"count":8,
			"type":"VEC2"
		},
		{
			"bufferView":27,
			"componentType":5123,
			"count":12,
			"type":"SCALAR"
		}
	],
	"bufferViews":[
		{
			"buffer":0,
			"byteLength":10956,
			"byteOffset":0,
			"target":34962
		},
		{
			"buffer":0,
			"byteLength":10956,
			"byteOffset":10956,
			"target":34962
		},
		{
			"buffer":0,
			"byteLength":7304,
			"byteOffset":21912,
			"target":34962
		},
		{
			"buffer":0,
			"byteLength":4608,
			"byteOffset":29216,
			"target":34963
		},
		{
			"buffer":0,
			"byteLength":2208,
			"byteOffset":33824,
			"target":34962
		},
		{
			"buffer":0,
			"byteLength":2208,
			"byteOffset":36032,
			"target":34962
		},
		{
			"buffer":0,
			"byteLength":1472,
			"byteOffset":38240,
			"target":34962
		},
		{
			"buffer":0,
			"byteLength":624,
			"byteOffset":39712,
			"target":34963
		},
		{
			"buffer":0,
			"byteLength":288,
			"byteOffset":40336,
			"target":34962
		},
		{
			"buffer":0,
			"byteLength":288,
			"byteOffset":40624,
			"target":34962
		},
		{
			"buffer":0,
			"byteLength":192,
			"byteOffset":40912,
			"target":34962
		},
		{
			"buffer":0,
			"byteLength":72,
			"byteOffset":41104,
			"target":34963
		},
		{
			"buffer":0,
			"byteLength":576,
			"byteOffset":41176,
			"target":34962
		},
		{
			"buffer":0,
			"byteLength":576,
			"byteOffset":41752,
			"target":34962
		},
		{
			"buffer":0,
			"byteLength":384,
			"byteOffset":42328,
			"target":34962
		},
		{
			"buffer":0,
			"byteLength":168,
			"byteOffset":42712,
			"target":34963
		},
		{
			"buffer":0,
			"byteLength":864,
			"byteOffset":42880,
			"target":34962
		},
		{
			"buffer":0,
			"byteLength":864,
			"byteOffset":43744,
			"target":34962
		},
		{
			"buffer":0,
			"byteLength":576,
			"byteOffset":44608,
			"target":34962
		},
		{
			"buffer":0,
			"byteLength":216,
			"byteOffset":45184,
			"target":34963
		},
		{
			"buffer":0,
			"byteLength":432,
			"byteOffset":45400,
			"target":34962
		},
		{
			"buffer":0,
			"byteLength":432,
			"byteOffset":45832,
			"target":34962
		},
		{
			"buffer":0,
			"byteLength":288,
			"byteOffset":46264,
			"target":34962
		},
		{
			"buffer":0,
			"byteLength":120,
			"byteOffset":46552,
			"target":34963
		},
		{
			"buffer":0,
			"byteLength":96,
			"byteOffset":46672,
			"target":34962
		},
		{
			"buffer":0,
			"byteLength":96,
			"byteOffset":46768,
			"target":34962
		},
		{
			"buffer":0,
			"byteLength":64,
			"byteOffset":46864,
			"target":34962
		},
		{
			"buffer":0,
			"byteLength":24,
			"byteOffset":46928,
			"target":34963
		}
	],
	"buffers":[
		{
			"byteLength":46952,
			"uri":"jvo.bin"
		}
	]
}
